<svg width="720" height="180" viewBox="0 0 720 180" fill="none" xmlns="http://www.w3.org/2000/svg">
  <defs>
    <linearGradient id="redGrad" x1="0" y1="0" x2="1" y2="1">
      <stop offset="0%" stop-color="#DC2626"/>
      <stop offset="100%" stop-color="#B91C1C"/>
    </linearGradient>
    <filter id="glow" x="-20%" y="-20%" width="140%" height="140%">
      <feDropShadow dx="0" dy="0" stdDeviation="5" flood-color="#DC2626" flood-opacity="0.55"/>
    </filter>
  </defs>
  <g transform="translate(20 22)" filter="url(#glow)">
    <path d="M70 0 L130 35 L130 105 L70 140 L10 105 L10 35 Z" stroke="url(#redGrad)" stroke-width="10" fill="#0A0A0A"/>
    <path d="M5 76 L-18 86 L8 91 L-12 103 L18 100 L36 84 Z" fill="#DC2626"/>
    <circle cx="70" cy="70" r="36" fill="#F8FAFC" stroke="#111827" stroke-width="4"/>
    <path d="M70 46 L86 58 L80 78 H60 L54 58 Z" fill="#0A0A0A"/>
    <path d="M43 66 L54 58 L60 78 L49 92 L36 82 Z" fill="#0A0A0A"/>
    <path d="M97 66 L86 58 L80 78 L91 92 L104 82 Z" fill="#0A0A0A"/>
    <path d="M60 78 H80 L88 99 L70 111 L52 99 Z" fill="#0A0A0A"/>
    <path d="M45 42 L54 58 M95 42 L86 58 M36 82 L52 99 M104 82 L88 99" stroke="#111827" stroke-width="3"/>
  </g>
  <g transform="translate(185 48)">
    <text x="0" y="58" font-family="Arial Black, Impact, sans-serif" font-size="68" font-weight="900" letter-spacing="3" fill="#FFFFFF">MATCH</text>
    <text x="318" y="58" font-family="Arial Black, Impact, sans-serif" font-size="68" font-weight="900" letter-spacing="3" fill="#DC2626">UP</text>
    <rect x="0" y="82" width="72" height="5" fill="#DC2626"/>
    <text x="88" y="91" font-family="Arial, sans-serif" font-size="21" font-weight="800" letter-spacing="7" fill="#D1D5DB">FOOTBALL KNOWLEDGE. HEAD TO HEAD.</text>
    <rect x="560" y="82" width="72" height="5" fill="#DC2626"/>
  </g>
</svg>
